<?xml version="1.0" encoding="UTF-8"?>
<svg version="1.1" xmlns="http://www.w3.org/2000/svg" width="500" height="500">
<path d="M0 0 C165 0 330 0 500 0 C500 165 500 330 500 500 C335 500 170 500 0 500 C0 335 0 170 0 0 Z " fill="#F7F6F7" transform="translate(0,0)"/>
<path d="M0 0 C22.44585578 0.34958526 43.56016306 9.30421018 59.85229492 24.68969727 C63.74370957 28.75310814 66.69646082 33.2043591 69.56713867 38.02954102 C70.9083962 40.39940863 70.9083962 40.39940863 72.97729492 42.31469727 C75.30221705 36.80444876 75.21104004 31.80356842 75.10229492 25.93969727 C75.09327148 25.01286133 75.08424805 24.08602539 75.07495117 23.13110352 C75.0515243 20.8586965 75.01872241 18.58683546 74.97729492 16.31469727 C76.10136121 17.2405212 77.22012691 18.17278278 78.33666992 19.10766602 C79.2720459 19.88533325 79.2720459 19.88533325 80.22631836 20.67871094 C82.93543873 23.2099178 84.47620253 25.95808789 85.97729492 29.31469727 C86.42588867 30.2640918 86.42588867 30.2640918 86.88354492 31.23266602 C89.77636374 38.3709643 89.24637299 45.75061376 88.97729492 53.31469727 C90.23219727 53.50032227 90.23219727 53.50032227 91.51245117 53.68969727 C103.97444165 55.89780189 116.09198565 60.99595828 124.97729492 70.31469727 C124.97729492 71.30469727 124.97729492 72.29469727 124.97729492 73.31469727 C118.70729492 73.64469727 112.43729492 73.97469727 105.97729492 74.31469727 C107.13229492 75.30469727 108.28729492 76.29469727 109.47729492 77.31469727 C123.71842752 89.87597796 135.84008958 105.75926835 137.97729492 125.31469727 C138.04189711 127.43881722 138.06340571 129.56472631 138.03979492 131.68969727 C138.03077148 132.74930664 138.02174805 133.80891602 138.01245117 134.90063477 C137.99504883 136.0955957 137.99504883 136.0955957 137.97729492 137.31469727 C135.25155221 136.94138903 134.16907407 136.52275125 132.27416992 134.46704102 C131.76370117 133.73614258 131.25323242 133.00524414 130.72729492 132.25219727 C130.20651367 131.5187207 129.68573242 130.78524414 129.14916992 130.02954102 C128.76245117 129.46364258 128.37573242 128.89774414 127.97729492 128.31469727 C128.21706055 129.61020508 128.21706055 129.61020508 128.46166992 130.93188477 C129.33180869 137.06296896 129.20189029 143.26002159 129.22729492 149.43969727 C129.25823242 151.33268555 129.25823242 151.33268555 129.28979492 153.26391602 C129.29495117 154.47950195 129.30010742 155.69508789 129.30541992 156.94750977 C129.31476563 158.04981934 129.32411133 159.15212891 129.33374023 160.2878418 C128.9302993 163.7137738 127.8121327 165.43674698 125.97729492 168.31469727 C125.23783068 170.88624125 125.23783068 170.88624125 124.84448242 173.58813477 C124.67819336 174.57813477 124.5119043 175.56813477 124.34057617 176.58813477 C124.17944336 177.61165039 124.01831055 178.63516602 123.85229492 179.68969727 C123.68342773 180.70547852 123.51456055 181.72125977 123.34057617 182.76782227 C122.48729679 187.94124842 121.69421423 193.12069001 120.97729492 198.31469727 C121.62956055 198.72719727 122.28182617 199.13969727 122.95385742 199.56469727 C132.15123178 205.64201838 137.1952796 211.60186215 139.97729492 222.31469727 C140.20416992 223.11907227 140.43104492 223.92344727 140.66479492 224.75219727 C142.40038459 238.98403254 139.48563046 252.69063323 130.97729492 264.31469727 C122.53493226 274.86318846 109.85906999 280.20530328 96.97729492 283.31469727 C96.1806543 283.27731445 95.38401367 283.23993164 94.56323242 283.20141602 C91.65576604 283.1179691 89.69028673 283.23126223 86.97729492 284.31469727 C84.39476127 287.76172311 82.75033617 291.55197546 80.9284668 295.44018555 C71.29982999 314.41571773 52.81504054 329.91139284 33.97729492 339.31469727 C33.31729492 339.31469727 32.65729492 339.31469727 31.97729492 339.31469727 C32.30729492 343.60469727 32.63729492 347.89469727 32.97729492 352.31469727 C34.11166992 352.56993164 35.24604492 352.82516602 36.41479492 353.08813477 C41.13688427 354.27072819 45.49818662 356.05641002 49.97729492 357.93969727 C57.40886671 360.99591117 64.89092516 363.66899309 72.53979492 366.12719727 C85.98532404 370.46667762 98.96192269 375.83709182 111.97729492 381.31469727 C110.60871748 384.5553364 109.2639394 386.12206129 106.33666992 388.04907227 C105.60343506 388.53657959 104.8702002 389.02408691 104.11474609 389.52636719 C103.32688721 390.03401611 102.53902832 390.54166504 101.72729492 391.06469727 C100.91172119 391.59619385 100.09614746 392.12769043 99.25585938 392.67529297 C96.83935749 394.23763136 94.41178561 395.78057107 91.97729492 397.31469727 C91.35709473 397.7077002 90.73689453 398.10070312 90.09790039 398.50561523 C63.70438012 415.01397914 32.66259512 423.76538374 1.97729492 427.31469727 C0.48456055 427.51192383 0.48456055 427.51192383 -1.03833008 427.71313477 C-26.33506513 430.65646557 -52.52906295 427.23845885 -76.89770508 420.37719727 C-78.18149048 420.01609863 -78.18149048 420.01609863 -79.49121094 419.64770508 C-101.7242334 413.16943637 -123.38900309 401.97220017 -142.02270508 388.31469727 C-143.12743164 387.6121582 -144.2321582 386.90961914 -145.37036133 386.18579102 C-146.24563477 385.56833008 -147.1209082 384.95086914 -148.02270508 384.31469727 C-148.02270508 383.65469727 -148.02270508 382.99469727 -148.02270508 382.31469727 C-145.9642307 381.2437968 -143.90131119 380.18320706 -141.83520508 379.12719727 C-140.11237305 378.23967773 -140.11237305 378.23967773 -138.35473633 377.33422852 C-127.26009581 371.97181893 -115.41947897 368.42419193 -103.68481445 364.76513672 C-101.72552535 364.15249261 -99.76812705 363.53428732 -97.81176758 362.91235352 C-97.17039856 362.70913483 -96.52902954 362.50591614 -95.8682251 362.29653931 C-92.5144487 361.20902032 -89.23934953 360.02372374 -85.98657227 358.66186523 C-85.32555511 358.38523544 -84.66453796 358.10860565 -83.98348999 357.82359314 C-82.16110357 357.04726393 -80.34812436 356.24895692 -78.53588867 355.44921875 C-74.39495049 354.11197485 -71.34459688 354.11113634 -67.02270508 354.31469727 C-66.36262655 349.13408097 -66.08207523 344.47747246 -67.02270508 339.31469727 C-70.12240267 335.89798514 -73.91076126 334.30401672 -78.02270508 332.31469727 C-94.09806798 322.02282187 -106.22749366 307.53259161 -116.02270508 291.31469727 C-116.45969727 290.59540039 -116.89668945 289.87610352 -117.34692383 289.13500977 C-120.02270508 284.60965341 -120.02270508 284.60965341 -120.02270508 282.31469727 C-120.74973633 282.37270508 -121.47676758 282.43071289 -122.22583008 282.49047852 C-132.81263676 282.96552753 -141.5999381 279.77868123 -150.02270508 273.31469727 C-150.5718457 272.90864258 -151.12098633 272.50258789 -151.68676758 272.08422852 C-160.78856323 264.92708965 -167.5787944 253.63359086 -170.02270508 242.31469727 C-171.32421539 229.26847107 -171.3925687 217.06511993 -163.02270508 206.31469727 C-160.69180775 204.37842971 -158.29279315 202.704969 -155.78442383 201.01000977 C-153.83760809 199.43185656 -153.83760809 199.43185656 -153.41723633 196.99438477 C-153.39711473 194.36248038 -153.62930681 191.91594293 -154.02270508 189.31469727 C-154.19212247 187.85668093 -154.35887073 186.39835151 -154.52270508 184.93969727 C-154.61422852 184.22168945 -154.70575195 183.50368164 -154.80004883 182.76391602 C-155.23676305 177.96005955 -155.09608806 173.13351333 -155.02270508 168.31469727 C-156.13645508 168.35594727 -157.25020508 168.39719727 -158.39770508 168.43969727 C-162.02270508 168.31469727 -162.02270508 168.31469727 -164.02270508 166.31469727 C-163.81028277 163.91922721 -163.45771308 161.6746285 -163.02270508 159.31469727 C-162.71805345 157.42599458 -162.41765543 155.53660329 -162.12036133 153.64672852 C-161.86996094 152.07375 -161.86996094 152.07375 -161.61450195 150.46899414 C-160.1293062 141.09198329 -158.80031731 131.77807419 -158.02270508 122.31469727 C-157.44031908 115.42903984 -156.33875336 109.48742784 -153.02270508 103.31469727 C-152.69270508 102.65469727 -152.36270508 101.99469727 -152.02270508 101.31469727 C-153.08489258 101.14454102 -154.14708008 100.97438477 -155.24145508 100.79907227 C-170.10545401 98.29978472 -170.10545401 98.29978472 -176.02270508 94.31469727 C-176.71411133 92.18579102 -176.71411133 92.18579102 -177.02270508 90.31469727 C-176.28407227 90.0349707 -175.54543945 89.75524414 -174.78442383 89.46704102 C-158.1269708 82.88448969 -145.71300628 71.76757022 -132.85644531 59.68212891 C-127.5680852 54.77318099 -121.89356306 50.50363377 -116.02270508 46.31469727 C-117.66751456 44.66988778 -119.82651652 44.87538345 -122.08520508 44.56469727 C-127.39486414 43.63706452 -132.07670606 42.13408669 -136.02270508 38.31469727 C-136.79614258 36.21313477 -136.79614258 36.21313477 -137.02270508 34.31469727 C-135.19506757 32.48705976 -132.17778437 32.82974338 -129.71020508 32.56469727 C-116.14067927 30.89791787 -103.10647063 27.06486862 -90.14770508 22.81469727 C-59.87039566 12.94752647 -27.74977251 9.27086893 3.97729492 13.31469727 C2.49616211 12.51805664 2.49616211 12.51805664 0.98510742 11.70532227 C-0.3094825 10.9923597 -1.60373595 10.27878591 -2.89770508 9.56469727 C-3.54868164 9.21665039 -4.1996582 8.86860352 -4.87036133 8.51000977 C-8.34439287 6.57601282 -10.77543188 5.21462192 -12.02270508 1.31469727 C-9.66288706 -1.04512076 -3.29033934 0.00279659 0 0 Z " fill="#080707" transform="translate(270.022705078125,41.685302734375)"/>
<path d="M0 0 C0.08811914 3.33316277 0.14076197 6.66602047 0.1875 10 C0.22520508 11.40185547 0.22520508 11.40185547 0.26367188 12.83203125 C0.32794222 18.95913725 -0.48483325 23.40193858 -3 29 C-5.29050015 26.05801028 -7.21403303 23.01129254 -9.125 19.8125 C-20.67028624 1.7384864 -40.44241558 -8.31591444 -60.93603516 -12.87524414 C-69.5822537 -14.55814574 -78.23521238 -14.34981414 -87 -14 C-86.67025365 -12.02500409 -86.67025365 -12.02500409 -86 -10 C-83.71868831 -8.864801 -83.71868831 -8.864801 -81 -8 C-79.20928742 -7.01445454 -77.43792648 -5.99294234 -75.6875 -4.9375 C-74.80449219 -4.41027344 -73.92148437 -3.88304688 -73.01171875 -3.33984375 C-72.34785156 -2.89769531 -71.68398438 -2.45554687 -71 -2 C-71 -1.67 -71 -1.34 -71 -1 C-71.93114624 -1.10501831 -71.93114624 -1.10501831 -72.88110352 -1.2121582 C-105.86091379 -4.60339063 -138.92717445 -1.28849827 -170.21948242 9.73803711 C-176.54153951 11.93547403 -182.95117544 13.66827595 -189.4375 15.3125 C-190.42057129 15.56708984 -191.40364258 15.82167969 -192.41650391 16.08398438 C-198.93206119 17.69884814 -205.30185952 18.58376834 -212 19 C-211.42904084 22.22821737 -211.42904084 22.22821737 -209.06640625 24.4140625 C-203.11713213 27.29124655 -197.54660557 29.06676048 -191 30 C-194.1613461 33.24587407 -197.38186352 36.19493701 -200.9375 39 C-205.44226156 42.63404255 -209.67464588 46.45791138 -213.875 50.4375 C-237.7660489 72.88060655 -237.7660489 72.88060655 -252 75 C-252 75.99 -252 76.98 -252 78 C-244.25009869 82.781854 -235.85748866 83.6713767 -227 85 C-227.33628418 85.73613525 -227.67256836 86.47227051 -228.01904297 87.23071289 C-231.99939512 96.61791428 -233.22246701 105.36570793 -234.125 115.4375 C-234.4086654 118.43731006 -234.70410937 121.43574861 -235.0078125 124.43359375 C-235.11527802 125.52056046 -235.11527802 125.52056046 -235.22491455 126.62948608 C-235.85517144 132.57765085 -237.04343157 138.26246716 -238.50732422 144.06665039 C-239.01273447 147.07581997 -238.80523016 149.08112502 -238 152 C-235.69 152.33 -233.38 152.66 -231 153 C-230.65846908 156.29086844 -230.32833354 159.58279077 -230 162.875 C-229.90460938 163.7928125 -229.80921875 164.710625 -229.7109375 165.65625 C-228.35547041 179.40455909 -228.35547041 179.40455909 -229 184 C-230.72265625 186.015625 -230.72265625 186.015625 -233.0625 187.25 C-239.46617009 191.65758938 -243.1425955 197.51527576 -245 205 C-246.50168535 216.01373066 -246.43967631 228.07468291 -241 238 C-240.52949219 238.87785156 -240.05898437 239.75570313 -239.57421875 240.66015625 C-232.66064669 252.79017027 -223.94955924 259.70359942 -211.25 265.1875 C-208.11089558 266.14244396 -208.11089558 266.14244396 -205.2421875 265.84765625 C-201.76916451 265.73885227 -199.28961117 265.83565078 -196 267 C-192.52208129 271.29522961 -190.39240933 276.04158247 -188 281 C-186.17301012 283.81878439 -184.12076602 286.3977074 -182 289 C-180.98292969 290.29164063 -180.98292969 290.29164063 -179.9453125 291.609375 C-171.51893404 302.16421585 -162.73758259 311.35718984 -150.69921875 317.75390625 C-147.36641605 319.62983162 -144.66967174 321.25405192 -142 324 C-140.81381511 328.97847056 -140.66411863 334.32823726 -143 339 C-144.93139648 339.50537109 -144.93139648 339.50537109 -147.43359375 339.8984375 C-152.91626164 340.89988242 -157.87247079 342.62987189 -163.0625 344.625 C-171.21943453 347.68911163 -179.424916 350.43035675 -187.75 353 C-197.56172389 356.05507068 -206.86101436 359.72432182 -216.13769531 364.13134766 C-219.0610537 365.49491728 -222.02832357 366.74572099 -225 368 C-238.81349533 356.35332747 -251.94544901 344.36254163 -263 330 C-263.70125 329.11570312 -264.4025 328.23140625 -265.125 327.3203125 C-286.47017178 299.80028746 -300.73177771 268.02431332 -308 234 C-308.16943115 233.23075195 -308.3388623 232.46150391 -308.51342773 231.66894531 C-311.21934034 218.68662847 -311.32099556 205.57826633 -311.375 192.375 C-311.38276459 191.51152954 -311.39052917 190.64805908 -311.39852905 189.75842285 C-311.76726871 137.66545377 -289.91009073 88.81214557 -256 50 C-255.20722656 49.071875 -254.41445312 48.14375 -253.59765625 47.1875 C-252.88480469 46.3625 -252.17195313 45.5375 -251.4375 44.6875 C-250.81746094 43.96949219 -250.19742188 43.25148438 -249.55859375 42.51171875 C-248 41 -248 41 -246 41 C-246 40.34 -246 39.68 -246 39 C-243.57999516 36.41763062 -240.72347688 34.25255869 -238 32 C-237.47954102 31.56333008 -236.95908203 31.12666016 -236.42285156 30.67675781 C-204.87236083 4.2847814 -167.09981395 -13.35962204 -126.23925781 -18.69140625 C-124.2860638 -18.96057734 -122.34105788 -19.28788583 -120.3984375 -19.625 C-79.12645191 -26.71708344 -37.69340711 -16.03724043 0 0 Z " fill="#E1E0DE" transform="translate(346,57)"/>
<path d="M0 0 C21.06581826 2.88042821 39.08910187 12.90875566 52 29.875 C56.28849267 36.41783479 59 44.16262629 59 52 C59.99 52 60.98 52 62 52 C62.37125 51.24783203 62.37125 51.24783203 62.75 50.48046875 C64.46692095 47.07345374 66.22603288 43.69010769 68 40.3125 C68.53367187 39.27899414 68.53367187 39.27899414 69.078125 38.22460938 C71.77148698 33.11425651 71.77148698 33.11425651 74 32 C74.48350422 39.89723556 72.67664721 47.33532703 71 55 C71.95519531 54.89300781 72.91039062 54.78601563 73.89453125 54.67578125 C82.02994428 53.92145083 89.32237119 53.55568826 97 57 C97.33 57.66 97.66 58.32 98 59 C95.93918639 59.50690584 93.87626474 60.00524619 91.8125 60.5 C90.66394531 60.7784375 89.51539063 61.056875 88.33203125 61.34375 C85.43181171 61.91495385 82.93903615 62.13283779 80 62 C80 62.66 80 63.32 80 64 C80.7321875 64.26167969 81.464375 64.52335937 82.21875 64.79296875 C88.73630635 67.62151497 94.16232556 72.89356587 99 78 C99.77859375 78.73476562 100.5571875 79.46953125 101.359375 80.2265625 C104.17181425 83.1804558 106.35630659 86.3044761 108.5 89.75 C108.88655762 90.36472168 109.27311523 90.97944336 109.67138672 91.61279297 C110.79002501 93.40308327 111.89632325 95.2004597 113 97 C113.56976563 97.91523438 114.13953125 98.83046875 114.7265625 99.7734375 C115.41878906 100.93746094 115.41878906 100.93746094 116.125 102.125 C116.51945312 102.78757812 116.91390625 103.45015625 117.3203125 104.1328125 C118.16652452 106.4574639 117.80661737 107.70267205 117 110 C116.31292969 109.50628906 115.62585938 109.01257813 114.91796875 108.50390625 C114.01691406 107.86324219 113.11585938 107.22257812 112.1875 106.5625 C111.29417969 105.92441406 110.40085937 105.28632813 109.48046875 104.62890625 C107.02865666 102.86709732 107.02865666 102.86709732 104 102 C104.176521 102.60473145 104.35304199 103.20946289 104.53491211 103.83251953 C105.33930856 106.59566497 106.13844477 109.36030547 106.9375 112.125 C107.21529297 113.07632813 107.49308594 114.02765625 107.77929688 115.0078125 C111.84275074 129.10750783 111.19332647 141.70644796 109.25 156.1875 C109.1617395 156.86410675 109.073479 157.5407135 108.98254395 158.23782349 C107.61642197 168.6625912 105.82998847 178.86924341 103 189 C99.7 189 96.4 189 93 189 C92.34 187.68 91.68 186.36 91 185 C90.34 184.67 89.68 184.34 89 184 C88.39331055 181.93725586 88.39331055 181.93725586 87.88671875 179.21484375 C87.69335938 178.21678711 87.5 177.21873047 87.30078125 176.19042969 C87.09839844 175.11696289 86.89601563 174.04349609 86.6875 172.9375 C84.71768972 163.0210295 82.39447507 153.52816263 79 144 C78.63390625 142.94941406 78.2678125 141.89882812 77.890625 140.81640625 C72.64760058 127.00857824 63.0963892 113.81148109 50 106.5 C43.11100527 103.5010947 35.44643001 102.66904756 28 103 C28.33 101.68 28.66 100.36 29 99 C28.34 98.67 27.68 98.34 27 98 C26.7265625 95.59375 26.7265625 95.59375 26.625 92.5 C26.02492129 84.207109 24.15136295 78.61569317 17.875 73 C12.60458664 68.7041159 8.73035229 68.34684345 2 69 C-16.00581652 73.42396431 -28.52803305 89.78987369 -39 104 C-45.36377016 112.62545851 -52.00071193 120.88867551 -59 129 C-59.33 128.34 -59.66 127.68 -60 127 C-59.22262633 124.82516861 -58.34894557 122.68463769 -57.4375 120.5625 C-53.66960919 111.56865 -50.83007076 102.32317637 -48 93 C-49.8560956 94.68542014 -51.71028949 96.37281698 -53.5625 98.0625 C-54.38306885 98.81043823 -54.38306885 98.81043823 -55.22021484 99.57348633 C-58.83738438 102.88735283 -62.33131435 106.28226674 -65.6953125 109.85546875 C-67 111 -67 111 -69 111 C-69 111.66 -69 112.32 -69 113 C-71.35649871 114.96626979 -73.71869067 116.80877136 -76.1875 118.625 C-76.91493408 119.16406982 -77.64236816 119.70313965 -78.3918457 120.25854492 C-84.72023429 124.89465861 -91.20162256 129.07753192 -98 133 C-98.99902344 133.60457031 -99.99804688 134.20914063 -101.02734375 134.83203125 C-118.97431666 145.2200017 -141.37078365 150.33668115 -162 151 C-161.86722656 150.27039063 -161.73445313 149.54078125 -161.59765625 148.7890625 C-160.32561944 141.26826094 -159.65915436 133.88560594 -159.34204102 126.27001953 C-159.16030454 122.0960923 -158.70272471 118.12547867 -158 114 C-158.103125 112.96875 -158.20625 111.9375 -158.3125 110.875 C-157.52123689 101.06333739 -150.41436478 92.73480682 -145 85 C-153.25 84.67 -161.5 84.34 -170 84 C-167.30007191 81.97505393 -164.70919699 80.16336784 -161.875 78.375 C-156.43016291 74.76590176 -151.77214123 70.44023032 -147 66 C-134.37095102 54.4453324 -121.71222325 43.08879696 -106.1875 35.5625 C-102.92995624 34.36514616 -102.92995624 34.36514616 -102 32 C-103.86205078 32.01740234 -103.86205078 32.01740234 -105.76171875 32.03515625 C-107.40364432 32.04453868 -109.04557153 32.0536384 -110.6875 32.0625 C-111.91243164 32.07506836 -111.91243164 32.07506836 -113.16210938 32.08789062 C-117.24499084 32.10442051 -121.01651707 32.03035098 -125 31 C-124.67 30.34 -124.34 29.68 -124 29 C-121.45587801 28.30807133 -118.95256729 27.72320343 -116.375 27.1875 C-110.68278613 25.93348533 -105.19873844 24.49052401 -99.6875 22.5625 C-86.80354927 18.11218013 -73.49117433 14.9333147 -60 13 C-58.66497437 12.74657837 -58.66497437 12.74657837 -57.30297852 12.48803711 C-53.70889503 11.9569873 -50.27747964 11.85342996 -46.64453125 11.83203125 C-45.94903671 11.82788712 -45.25354218 11.82374298 -44.53697205 11.81947327 C-42.29542691 11.80984687 -40.05406251 11.80980711 -37.8125 11.8125 C-37.05110718 11.81243958 -36.28971436 11.81237915 -35.50524902 11.81231689 C-6.63693364 11.84504741 -6.63693364 11.84504741 5 16 C7.39249736 16.69902073 9.7884682 17.38624559 12.1875 18.0625 C15.48158134 18.99213957 18.75295002 19.91765001 22 21 C19.72759057 16.51138914 16.66969416 13.86199446 12.6875 10.9375 C12.13126953 10.51662109 11.57503906 10.09574219 11.00195312 9.66210938 C8.25627681 7.60045487 5.48106687 5.65629347 2.58203125 3.81640625 C1.72996094 3.21699219 0.87789062 2.61757813 0 2 C0 1.34 0 0.68 0 0 Z " fill="#2D2F33" transform="translate(279,49)"/>
<path d="M0 0 C5.24500467 1.52702668 9.75990109 3.84893003 14.5 6.5 C15.29027588 6.94142334 16.08055176 7.38284668 16.89477539 7.83764648 C33.62063287 17.34975073 48.07383802 29.82197804 62 43 C62.680625 43.63808594 63.36125 44.27617188 64.0625 44.93359375 C100.31696481 79.92922298 122.12546345 133.18862617 123.1796875 183.140625 C123.34726326 196.15431362 123.28101372 209.06809428 121.31201172 221.95214844 C120.98586799 224.09275373 120.69790631 226.23673567 120.41015625 228.3828125 C113.27866522 278.66531002 84.04717445 326.42693292 46.0625 359.5625 C44 361 44 361 42 361 C42 361.66 42 362.32 42 363 C40.125 365.125 40.125 365.125 38 367 C37.34 367 36.68 367 36 367 C36 366.34 36 365.68 36 365 C35.46850342 364.83056885 34.93700684 364.6611377 34.3894043 364.48657227 C29.36231373 362.8515556 24.45479579 361.02248352 19.55371094 359.04394531 C8.00548495 354.38269129 -3.67780308 350.33512484 -15.53198242 346.53881836 C-22.12613364 344.40209929 -28.43614538 342.06189854 -34.68579102 339.05493164 C-37.73638452 337.66431928 -40.74848541 336.79481468 -44 336 C-44 331.71 -44 327.42 -44 323 C-41.64875 321.7934375 -41.64875 321.7934375 -39.25 320.5625 C-19.04644948 309.49064389 -0.01903958 291.46606993 8.6875 269.8125 C12.06101906 265.70957142 15.49870248 265.92262376 20.62109375 265.37890625 C33.73735189 263.90806574 45.13507563 257.68516648 54 248 C56.01138686 245.12246568 57.55660549 242.19439769 59 239 C59.556875 237.88625 60.11375 236.7725 60.6875 235.625 C65.32245895 222.82368482 65.6365678 209.01435563 59.8515625 196.51953125 C55.96437122 189.99219561 50.27669872 186.09884062 44 182 C44.84323492 175.76357505 45.91450572 169.57332964 47 163.375 C47.17789063 162.35148438 47.35578125 161.32796875 47.5390625 160.2734375 C48.3129351 155.83810797 49.102655 151.41227712 50 147 C50.66 147 51.32 147 52 147 C52.02922653 142.50001382 52.04687482 138.00005235 52.0625 133.5 C52.07506836 131.59734375 52.07506836 131.59734375 52.08789062 129.65625 C52.10434137 123.33916501 52.00091014 117.24189628 51 111 C55.67171717 115.54545455 55.67171717 115.54545455 57.625 118.25 C58.97372834 120.29712875 58.97372834 120.29712875 62 121 C60.51511706 95.36304152 50.47199092 77.36551559 32 60 C31.01 59.01 30.02 58.02 29 57 C35.6 57 42.2 57 49 57 C44.9820991 48.9641982 35.14997773 44.29177373 27 41 C22.3661503 39.51987682 17.71107582 38.21510457 13 37 C12.94392578 35.53240234 12.94392578 35.53240234 12.88671875 34.03515625 C12.19491522 20.23977992 9.21763184 10.49785849 0 0 Z " fill="#DFDEDD" transform="translate(346,58)"/>
<path d="M0 0 C0.33 0 0.66 0 1 0 C1.4373739 17.42093889 1.67306496 34.06400793 -3 51 C-3.17660156 51.68481445 -3.35320312 52.36962891 -3.53515625 53.07519531 C-7.57061745 68.58182864 -14.0551449 84.14307364 -25 96 C-25.68578125 96.81339844 -26.3715625 97.62679687 -27.078125 98.46484375 C-40.72253949 114.39150743 -58.22355171 126.22439272 -78 133 C-78.64517578 133.22445801 -79.29035156 133.44891602 -79.95507812 133.68017578 C-101.70090309 140.94551166 -125.94801552 137.49825189 -146.43017578 127.85595703 C-155.19601885 123.40664101 -163.58134896 118.49131966 -171 112 C-171.680625 111.43796875 -172.36125 110.8759375 -173.0625 110.296875 C-198.71546894 88.72506021 -210.81718541 58.83433266 -213.73046875 26.06640625 C-214.12847282 20.71040863 -214.18941905 15.36687307 -214 10 C-212.26218979 13.07886011 -211.27972623 16.24868703 -210.30151367 19.63549805 C-207.6077273 28.91219141 -205.1956929 37.00470716 -196.296875 41.97265625 C-188.89126944 45.28502745 -181.05655025 46.64655134 -173 47 C-172.01797607 47.04882324 -172.01797607 47.04882324 -171.01611328 47.09863281 C-161.70115032 47.50803629 -152.83855126 47.12890605 -143.6875 45.25 C-142.90576416 45.09313721 -142.12402832 44.93627441 -141.31860352 44.7746582 C-135.59450561 43.47641561 -131.05754882 41.52392656 -127.2421875 36.84375 C-122.56114696 28.81910907 -119.53450265 20.6831358 -118.0625 11.5 C-117.43597656 8.14053812 -117.07984834 7.09581801 -114.8125 4.375 C-110.15936874 2.10013583 -106.62772763 2.63145789 -101.6875 3.75 C-97.85865064 6.9555483 -98.06608191 9.99222291 -97.48046875 14.8046875 C-96.76261283 19.57872121 -95.05330186 23.65812211 -93 28 C-92.62875 28.79535156 -92.2575 29.59070313 -91.875 30.41015625 C-88.73698846 36.59327767 -85.10559248 41.33821257 -78.5390625 43.99609375 C-70.65382523 46.47059013 -63.15799123 47.16913687 -54.9375 47.125 C-53.53576538 47.11774902 -53.53576538 47.11774902 -52.10571289 47.11035156 C-32.44776671 47.12788597 -32.44776671 47.12788597 -15 39 C-14.34 39 -13.68 39 -13 39 C-12.70867187 38.40832031 -12.41734375 37.81664062 -12.1171875 37.20703125 C-11.17201565 35.33982113 -10.15591092 33.50877596 -9.125 31.6875 C-6.02340422 25.49583853 -4.64647094 18.68751779 -3 12 C-2.69707031 10.79988281 -2.39414062 9.59976562 -2.08203125 8.36328125 C-1.37980702 5.57746214 -0.685786 2.78990214 0 0 Z " fill="#F2BB8B" transform="translate(360,250)"/>
<path d="M0 0 C1.85283345 0.09421187 3.7061574 0.18327007 5.56054688 0.23901367 C21.36468041 0.75473832 34.04586397 5.04146752 45.09375 16.703125 C52.9765704 26.20127745 56.60835783 37.34449602 60 49 C60.21317871 49.72896484 60.42635742 50.45792969 60.64599609 51.20898438 C62.9526949 59.26505223 64.24941683 66.60083511 64 75 C63.38592285 74.91435791 62.7718457 74.82871582 62.13916016 74.74047852 C59.30137622 74.34585335 56.46319415 73.95416351 53.625 73.5625 C52.17673828 73.36043945 52.17673828 73.36043945 50.69921875 73.15429688 C25.50107672 69.68743841 -4.95100005 66.49238178 -27.16015625 81.33984375 C-29.19232964 82.9441392 -29.19232964 82.9441392 -30.15625 85.6484375 C-32 88 -32 88 -33.94897461 88.49731445 C-36.46344319 88.71246867 -38.91446689 88.73083813 -41.4375 88.6875 C-42.29666016 88.71521484 -43.15582031 88.74292969 -44.04101562 88.77148438 C-46.51132609 88.7619021 -48.61695247 88.65651603 -51 88 C-53.1875 85.1875 -53.1875 85.1875 -55 82 C-62.56472634 77.03715406 -71.14772574 73.76053634 -80 72 C-80.96164063 71.79632813 -81.92328125 71.59265625 -82.9140625 71.3828125 C-100.05729578 68.33790732 -117.86582898 69.27596701 -134.91796875 72.34375 C-138.31403839 72.9459623 -141.54238415 73.13234893 -145 73 C-144.95936532 63.5930706 -142.96400905 53.13520057 -138 45 C-134.60940518 42.16721272 -131.2196482 41.15181998 -127 40 C-110.34133843 33.79293706 -96.12134124 24.03738666 -82.8125 12.375 C-80 10 -80 10 -78 10 C-80.69659383 19.56065086 -85.98691908 27.06432615 -93 34 C-93.99 34.495 -93.99 34.495 -95 35 C-95.65213292 37.02463255 -95.65213292 37.02463255 -96 39 C-93.56201552 38.52319861 -91.12462484 38.04365871 -88.6875 37.5625 C-87.99720703 37.42779297 -87.30691406 37.29308594 -86.59570312 37.15429688 C-83.65710993 36.57225668 -80.84543315 35.94847772 -78 35 C-80.24902144 39.96978884 -83.19771931 43.34071054 -88 46 C-91.70928451 46.58454542 -95.29430655 46.69154717 -99.046875 46.78125 C-108.49318193 47.30397054 -119.10441056 50.15007671 -126 57 C-127.73450318 60.09268239 -127.73450318 60.09268239 -129 63 C-128.22140625 62.71125 -127.4428125 62.4225 -126.640625 62.125 C-112.21515572 57.33866918 -97.98709603 57.93100942 -83.29296875 61.328125 C-78.43731265 62.31884012 -72.58299721 63.2914986 -68 61 C-67.59270772 58.67843403 -67.25561323 56.3431213 -67 54 C-67.78375 53.690625 -68.5675 53.38125 -69.375 53.0625 C-72 52 -72 52 -74 51 C-74 50.34 -74 49.68 -74 49 C-72.31550252 47.82881699 -70.57504001 46.73757338 -68.8125 45.6875 C-63.90382077 42.64311454 -60.1530401 39.58040233 -56.4453125 35.13671875 C-55.90648437 34.49347656 -55.36765625 33.85023438 -54.8125 33.1875 C-54.32394531 32.58292969 -53.83539063 31.97835937 -53.33203125 31.35546875 C-52.89246094 30.90816406 -52.45289063 30.46085937 -52 30 C-51.34 30 -50.68 30 -50 30 C-49.7834375 29.47792969 -49.566875 28.95585937 -49.34375 28.41796875 C-43.16327033 17.29669865 -30.88374635 3.81237929 -18.796875 -0.421875 C-13.19172878 -1.58048064 -5.26125906 -2.63062953 0 0 Z " fill="#F2BC8A" transform="translate(294,156)"/>
<path d="M0 0 C0.2475 0.99 0.495 1.98 0.75 3 C4.69790206 16.31083196 13.87074867 24.34834386 25.6875 31.24609375 C49.0955542 43.64021679 78.39428185 46.17072054 103.85644531 38.69775391 C114.15442517 35.34563244 126.26449105 30.73550895 134 23 C136.5511628 22.79955284 138.99099642 22.72022368 141.54296875 22.734375 C142.68394768 22.73150482 142.68394768 22.73150482 143.84797668 22.72857666 C145.46790902 22.72721276 147.0878522 22.73092345 148.70776367 22.73925781 C151.13291647 22.74976354 153.55729525 22.73947135 155.98242188 22.7265625 C165.69261822 22.71710043 175.47951885 22.88965833 185 25 C185.99 25.99 185.99 25.99 187 27 C158.57051856 44.84760368 127.28041056 55.15051472 94 59 C93.00484375 59.13148438 92.0096875 59.26296875 90.984375 59.3984375 C65.68763995 62.34176831 39.49364213 58.92376158 15.125 52.0625 C13.8412146 51.70140137 13.8412146 51.70140137 12.53149414 51.33300781 C-8.99187623 45.06151787 -35.91629121 34.08370879 -52 18 C-45.20578996 14.40306527 -38.20000177 11.67747384 -31 9 C-29.67162109 8.48953125 -29.67162109 8.48953125 -28.31640625 7.96875 C-22.61516016 5.81668146 -16.83788392 3.98883964 -11 2.25 C-9.8857666 1.91548828 -9.8857666 1.91548828 -8.74902344 1.57421875 C-5.73776093 0.69368406 -3.15435786 0 0 0 Z " fill="#404141" transform="translate(178,410)"/>
<path d="M0 0 C1.38783691 0.49028687 1.38783691 0.49028687 2.80371094 0.99047852 C34.31750348 12.24109442 34.31750348 12.24109442 66 23 C64.34808509 24.35156675 62.67705908 25.679762 61 27 C60.48920898 27.4434375 59.97841797 27.886875 59.45214844 28.34375 C56.25032408 30.94298912 54.66414139 31.99056411 50.42578125 32.05078125 C49.05127737 31.82450864 47.68022629 31.57666852 46.3125 31.3125 C37.13578313 29.98256873 28.00807007 29.62456585 18.74911499 29.53060913 C17.13484961 29.51033048 15.52068513 29.47843345 13.90689087 29.43447876 C2.35470676 28.91494761 2.35470676 28.91494761 -7.38061523 34.45410156 C-8.18221069 35.21932129 -8.18221069 35.21932129 -9 36 C-24.8216831 45.59360891 -43.17112962 49.37376987 -61.4375 49.25 C-62.57509766 49.25773437 -63.71269531 49.26546875 -64.88476562 49.2734375 C-86.44353008 49.22424465 -109.29477341 42.05745342 -124.9375 26.625 C-130.02776296 21.25521393 -135.21918646 15.6980763 -135.3125 7.9375 C-135.209375 6.968125 -135.10625 5.99875 -135 5 C-133.25307205 4.32532438 -131.50231475 3.66055844 -129.75 3 C-128.77546875 2.62875 -127.8009375 2.2575 -126.796875 1.875 C-124 1 -124 1 -120 1 C-119.46375 2.175625 -118.9275 3.35125 -118.375 4.5625 C-112.38992066 16.24570282 -100.76386507 23.92548698 -88.51171875 28.2265625 C-87.26841797 28.60941406 -87.26841797 28.60941406 -86 29 C-85.09894531 29.29648437 -84.19789063 29.59296875 -83.26953125 29.8984375 C-67.48146117 34.35095921 -50.42928723 33.11955755 -35 28 C-34.05898438 27.68804687 -33.11796875 27.37609375 -32.1484375 27.0546875 C-18.07255353 21.86883551 -6.88618884 13.37241769 0 0 Z " fill="#1D1E20" transform="translate(313,404)"/>
<path d="M0 0 C3.51007574 1.30462992 6.53427289 2.86318898 9.6875 4.875 C23.45975341 13.26971184 39.4135592 15.34288582 55.31054688 12.6015625 C63.00633547 10.72277843 70.03150762 7.22996219 76.828125 3.234375 C79 2 79 2 82 1 C82.16435547 1.97839844 82.16435547 1.97839844 82.33203125 2.9765625 C83.79997426 11.06815082 85.80714256 16.30926614 92 22 C88.88617102 29.59841963 80.08096776 34.47336844 72.92578125 37.83984375 C66.74847192 40.28932422 60.36867501 42.12048184 54 44 C52.515 44.495 52.515 44.495 51 45 C29.52222011 46.47062296 10.775111 43.69551426 -6.2890625 29.64453125 C-8.362749 27.6513303 -9.80921279 25.61973186 -11 23 C-10.52949219 22.5153125 -10.05898437 22.030625 -9.57421875 21.53125 C-3.37653735 14.85879798 -0.93508431 8.97680936 0 0 Z " fill="#BA7C59" transform="translate(212,387)"/>
<path d="M0 0 C16.41544118 1.01286765 16.41544118 1.01286765 22.625 6.1875 C25.63442581 12.34314369 23.75210823 19.41026367 22.25 25.8125 C22.06808105 26.59713623 21.88616211 27.38177246 21.69873047 28.19018555 C17.99373216 43.72144896 17.99373216 43.72144896 13.375 49 C4.06826853 54.51510013 -5.49566715 54.50113766 -16.01318359 54.44604492 C-18.4953057 54.43751613 -20.97513414 54.46640379 -23.45703125 54.49804688 C-41.63661966 54.57963203 -41.63661966 54.57963203 -48.85449219 48.41650391 C-56.72641698 40.4358788 -58.90330101 27.95810662 -59.4375 17.1875 C-59.33967871 13.52692438 -59.17255599 12.26458585 -57.125 9.125 C-51.19133268 5.09010622 -46.29048529 2 -39 2 C-40.98 5.96 -42.96 9.92 -45 14 C-44.67 14.33 -44.34 14.66 -44 15 C-43.90513517 16.78978305 -43.81613605 18.58012785 -43.76123047 20.37158203 C-43.49280724 28.34784041 -43.11552535 34.83854245 -37.25 40.76953125 C-32.05030516 45.39509312 -28.8135138 46.35963236 -21.828125 46.27734375 C-17.49223863 45.85213942 -15.45378189 44.6784431 -12 42 C-5.57561837 33.83929901 -5.29551586 26.00367474 -6 16 C-7.13110263 11.08754697 -10.12399513 7.06607586 -13 3 C-6.13169081 4.92513192 -1.59716397 8.60686064 3 14 C4.506204 17.28962347 5.27909276 20.4724539 6 24 C6.33 24.33 6.66 24.66 7 25 C7.04080783 26.99958364 7.04254356 29.00045254 7 31 C7.66 31 8.32 31 9 31 C11.22040795 22.67347017 10.59945689 15.79837335 6.4453125 8.2734375 C4.52131701 5.2470446 2.42874249 2.63692042 0 0 Z " fill="#EEB786" transform="translate(328,236)"/>
<path d="M0 0 C-0.39832031 0.56847656 -0.79664063 1.13695312 -1.20703125 1.72265625 C-7.28285943 10.57769537 -10.25271492 17.32712109 -8.5 28.0625 C-8.335 28.701875 -8.17 29.34125 -8 30 C-7.34 30 -6.68 30 -6 30 C-6.061875 28.845 -6.12375 27.69 -6.1875 26.5 C-6.14869874 19.16656246 -3.46890226 13.82181561 1.44921875 8.4765625 C4.49581 5.57577788 6.76625983 4 11 4 C10.731875 4.66 10.46375 5.32 10.1875 6 C9.795625 6.99 9.40375 7.98 9 9 C8.73574219 9.59296875 8.47148437 10.1859375 8.19921875 10.796875 C4.92621153 18.55281628 5.26016817 25.61299669 7.890625 33.56640625 C10.30313932 38.85864717 13.79249958 42.89624979 19 45.5 C26.3641257 46.72735428 31.60979044 45.801927 38 42 C41.78997852 38.30720042 43.78380983 34.2151358 44.14282227 28.87597656 C44.16063649 26.51847723 44.12557469 24.16919965 44.0625 21.8125 C44.02802018 20.21493513 43.99789068 18.6172689 43.97265625 17.01953125 C43.95468994 16.31932861 43.93672363 15.61912598 43.91821289 14.89770508 C44 13 44 13 45 10 C44.02648474 7.88433214 44.02648474 7.88433214 42.5625 5.8125 C41.85287109 4.73935547 41.85287109 4.73935547 41.12890625 3.64453125 C40.75636719 3.10183594 40.38382812 2.55914062 40 2 C43.73942719 2.60313342 46.74706776 3.67053878 50.125 5.375 C51.39730469 6.00535156 51.39730469 6.00535156 52.6953125 6.6484375 C56.50223035 8.88096899 56.50223035 8.88096899 58 11 C59.64146777 23.74343795 56.30627693 37.50878552 48.875 48 C40.05385186 54.13645088 30.58216492 54.61246318 20.19311523 54.46655273 C17.93724202 54.43749668 15.68371657 54.44600348 13.42773438 54.45898438 C4.15698484 54.445471 -4.31761167 54.00379629 -12.3125 48.875 C-18.89969208 41.82823638 -20.81722043 34.48021387 -22.421875 25.16015625 C-22.82761213 22.11231259 -22.82761213 22.11231259 -24 20 C-24.55998263 14.58416802 -25.01181016 9.70961027 -22.1875 4.9375 C-15.29871644 0.75020019 -7.95981903 -0.45055579 0 0 Z " fill="#EEB988" transform="translate(177,236)"/>
<path d="M0 0 C0 0.33 0 0.66 0 1 C-0.82242188 1.02578125 -1.64484375 1.0515625 -2.4921875 1.078125 C-17.892613 1.86059466 -26.47665605 7.62222489 -36.58789062 18.74707031 C-42.37979233 24.968712 -42.37979233 24.968712 -47 32 C-47.66 32 -48.32 32 -49 32 C-49.33 32.99 -49.66 33.98 -50 35 C-52.82466759 38.13003705 -55.27127437 40.13563719 -59 42 C-59.33 42.99 -59.66 43.98 -60 45 C-61.99609375 46.60546875 -61.99609375 46.60546875 -64.4375 48.1875 C-65.24058594 48.71730469 -66.04367188 49.24710938 -66.87109375 49.79296875 C-69 51 -69 51 -71 51 C-71 51.66 -71 52.32 -71 53 C-70.21625 53.309375 -69.4325 53.61875 -68.625 53.9375 C-66 55 -66 55 -64 56 C-63.8125 59.375 -63.8125 59.375 -64 63 C-68.3346404 65.88976027 -71.89846271 65.45244997 -77 65 C-79.29758292 64.5279313 -81.58902867 64.02542478 -83.875 63.5 C-95.41569372 61.03954753 -108.95220294 59.90749235 -120.125 64.34375 C-122 65 -122 65 -126 65 C-125.52373004 60.7135704 -123.12632867 58.77895881 -120 56 C-111.60715143 49.88858773 -102.45927491 47.90500666 -92.1875 47.75 C-85.33251614 47.49955696 -82.12695103 45.62474242 -77.44140625 40.71484375 C-76.96574219 40.14894531 -76.49007812 39.58304688 -76 39 C-76.66 39 -77.32 39 -78 39 C-79.66666667 39 -81.33333333 39 -83 39 C-80.21816306 36.82927598 -77.38603732 35.03981807 -74.3125 33.3125 C-61.37776466 25.57441786 -52.68436984 13.8105902 -44.36157227 1.50732422 C-36.17299791 -10.34899689 -11.89677901 -3.8178775 0 0 Z " fill="#BE7E59" transform="translate(291,154)"/>
<path d="M0 0 C7.21447966 2.76246742 11.83619891 8.75429837 16 15 C19.07223901 26.09970223 17.76134192 39.66028115 13 50 C6.95872678 60.23573234 -1.99871355 66.60974242 -13.32421875 69.6171875 C-17.3159088 70.58047138 -20.87810366 71.09384352 -25 71 C-24.84144531 70.46117187 -24.68289063 69.92234375 -24.51953125 69.3671875 C-22.58380061 62.54400434 -20.95590776 55.66296689 -19.375 48.75 C-19.15690674 47.80366699 -18.93881348 46.85733398 -18.71411133 45.88232422 C-17.81385027 41.90829968 -17.01176561 38.12891014 -16.640625 34.0625 C-16 31 -16 31 -13.9609375 28.890625 C-6.10834276 23.90861625 -0.49264403 20.50038716 9 21 C6.28395285 18.12579877 6.28395285 18.12579877 3 16 C-3.20952337 15.93790477 -7.10674549 17.3002222 -12 21 C-12.66 21 -13.32 21 -14 21 C-14.33 21.66 -14.66 22.32 -15 23 C-15 16.07 -15 9.14 -15 2 C-9.81515407 -0.59242297 -5.70937081 -0.76019362 0 0 Z " fill="#BF7955" transform="translate(385,246)"/>
<path d="M0 0 C1.051875 -0.00257813 2.10375 -0.00515625 3.1875 -0.0078125 C6 0.125 6 0.125 9 1.125 C9 7.065 9 13.005 9 19.125 C6.36 18.135 3.72 17.145 1 16.125 C-2.81076269 15.87511392 -5.385823 15.92027433 -9 17.125 C-9.73323796 19.14008358 -9.73323796 19.14008358 -10 21.125 C-9.071875 21.16625 -8.14375 21.2075 -7.1875 21.25 C-3.57750134 21.79629837 -0.53549843 23.04551735 2.75 24.625 C3.67296875 25.0684375 4.5959375 25.511875 5.546875 25.96875 C11.17686408 30.91740282 11.55010243 39.48190437 12.5 46.5625 C13.37633846 52.63431577 14.39430327 58.40839028 16.44921875 64.21484375 C17 66.125 17 66.125 17 70.125 C6.67630152 70.08506306 -1.27843531 66.86645293 -8.875 59.8125 C-12.3891405 55.97965464 -14.80190215 51.81680197 -17 47.125 C-17.39445312 46.33738281 -17.78890625 45.54976563 -18.1953125 44.73828125 C-22.42800827 35.07411922 -22.93670283 22.47144486 -19.5 12.4375 C-17.14716693 7.563172 -13.45956893 4.11941281 -9 1.125 C-5.77717587 0.05072529 -3.38488847 -0.0082963 0 0 Z " fill="#D18F67" transform="translate(129,245.875)"/>
<path d="M0 0 C0.53625 1.175625 1.0725 2.35125 1.625 3.5625 C7.61007934 15.24570282 19.23613493 22.92548698 31.48828125 27.2265625 C32.73158203 27.60941406 32.73158203 27.60941406 34 28 C34.90105469 28.29648437 35.80210937 28.59296875 36.73046875 28.8984375 C53.68388324 33.67960743 73.1045561 32.37987243 89.1875 25.1875 C96.91351809 22.78103535 105.45529237 24.36812525 113 27 C98.92215906 39.67005684 78.88571163 43.37422253 60.625 43.25 C59.49578125 43.25773437 58.3665625 43.26546875 57.203125 43.2734375 C34.67675954 43.22188975 13.43087058 37.03841348 -3 21 C-7.57340122 15.70490958 -10.8453085 11.11580912 -11 4 C-4.39130435 0 -4.39130435 0 0 0 Z " fill="#3F4041" transform="translate(193,405)"/>
<path d="M0 0 C0.33 0 0.66 0 1 0 C1.4373739 17.42093889 1.67306496 34.06400793 -3 51 C-3.17660156 51.68481445 -3.35320312 52.36962891 -3.53515625 53.07519531 C-7.57061745 68.58182864 -14.0551449 84.14307364 -25 96 C-25.68578125 96.81339844 -26.3715625 97.62679687 -27.078125 98.46484375 C-40.72253949 114.39150743 -58.22355171 126.22439272 -78 133 C-78.64517578 133.22445801 -79.29035156 133.44891602 -79.95507812 133.68017578 C-98.04624084 139.72447963 -117.2906382 138.19428543 -135.125 132.125 C-135.87136719 131.88136719 -136.61773437 131.63773438 -137.38671875 131.38671875 C-147.80692914 127.88915248 -147.80692914 127.88915248 -152 125 C-152.33 124.01 -152.66 123.02 -153 122 C-154.29355827 120.62804426 -155.62298702 119.28817344 -157 118 C-153.55177968 119.31671173 -150.24982156 120.83613943 -146.9375 122.46240234 C-127.10073853 132.11732609 -104.26710056 135.91662333 -82.96484375 128.73193359 C-66.45531301 122.58188723 -52.46583355 112.27747618 -40 100 C-38.68515625 98.72189453 -38.68515625 98.72189453 -37.34375 97.41796875 C-30.2507024 90.11694599 -25.51009719 82.03712577 -21 73 C-20.66307129 72.32743164 -20.32614258 71.65486328 -19.97900391 70.96191406 C-14.84677534 60.51533744 -11 49.79398444 -11 38 C-11.66 37.67 -12.32 37.34 -13 37 C-12.67386719 36.5153125 -12.34773437 36.030625 -12.01171875 35.53125 C-11.57472656 34.8609375 -11.13773438 34.190625 -10.6875 33.5 C-10.25824219 32.8503125 -9.82898438 32.200625 -9.38671875 31.53125 C-5.83586278 25.04968756 -4.26994969 18.31178082 -2.875 11.125 C-2.54148869 9.43962224 -2.20566412 7.75470009 -1.8671875 6.0703125 C-1.65231689 4.96840576 -1.65231689 4.96840576 -1.43310547 3.84423828 C-1 2 -1 2 0 0 Z " fill="#C68359" transform="translate(360,250)"/>
<path d="M0 0 C2.24474805 -0.00216095 4.48898292 -0.02027363 6.73364258 -0.03930664 C31.36095044 -0.13737744 31.36095044 -0.13737744 37.8449707 4.18530273 C37.010625 4.19988525 36.1762793 4.21446777 35.31665039 4.22949219 C-3.58402327 4.98663735 -41.7166036 10.47188166 -72.29956055 36.75170898 C-74.1550293 38.18530273 -74.1550293 38.18530273 -76.1550293 38.18530273 C-76.1550293 38.84530273 -76.1550293 39.50530273 -76.1550293 40.18530273 C-77.6315918 41.48999023 -77.6315918 41.48999023 -79.7800293 43.06030273 C-82.73389628 45.27570297 -85.59165747 47.53719076 -88.3425293 49.99780273 C-99.36098914 59.84746939 -114.46659892 72.82735593 -130.1550293 72.18530273 C-127.52070094 70.16525723 -124.83628593 68.33104032 -122.0300293 66.56030273 C-116.58519221 62.9512045 -111.92717052 58.62553306 -107.1550293 54.18530273 C-94.52598032 42.63063513 -81.86725255 31.2740997 -66.3425293 23.74780273 C-63.08498554 22.5504489 -63.08498554 22.5504489 -62.1550293 20.18530273 C-63.39639648 20.1969043 -64.63776367 20.20850586 -65.91674805 20.22045898 C-67.55867362 20.22984142 -69.20060083 20.23894113 -70.8425293 20.24780273 C-72.06746094 20.26037109 -72.06746094 20.26037109 -73.31713867 20.27319336 C-77.40002013 20.28972324 -81.17154637 20.21565372 -85.1550293 19.18530273 C-84.8250293 18.52530273 -84.4950293 17.86530273 -84.1550293 17.18530273 C-81.6109073 16.49337407 -79.10759659 15.90850616 -76.5300293 15.37280273 C-70.83781543 14.11878806 -65.35376774 12.67582674 -59.8425293 10.74780273 C-46.95857856 6.29748286 -33.64620362 3.11861744 -20.1550293 1.18530273 C-19.2679126 1.01635498 -18.3807959 0.84740723 -17.46679688 0.67333984 C-11.67826405 -0.17968464 -5.83964494 -0.00062691 0 0 Z " fill="#EEE9DA" transform="translate(239.155029296875,60.814697265625)"/>
<path d="M0 0 C2.98577503 1.34294685 5.03689051 2.8503686 7.375 5.125 C25.1122755 20.8878107 51.07210165 25.20392281 74 27 C70.9009001 30.45549639 67.34836002 31.37155814 63 32.625 C62.27554688 32.8415625 61.55109375 33.058125 60.8046875 33.28125 C58.87126972 33.85913502 56.9357397 34.42994106 55 35 C53.515 35.495 53.515 35.495 52 36 C30.52222011 37.47062296 11.775111 34.69551426 -5.2890625 20.64453125 C-7.362749 18.6513303 -8.80921279 16.61973186 -10 14 C-9.52949219 13.49210937 -9.05898437 12.98421875 -8.57421875 12.4609375 C-4.98265595 8.49014136 -2.0977575 4.93590001 0 0 Z " fill="#F1BD89" transform="translate(211,396)"/>
<path d="M0 0 C0.7734375 0.495 0.7734375 0.495 1.5625 1 C1.5625 1.66 1.5625 2.32 1.5625 3 C5.85588737 4.00276394 10.05015563 4.94215467 14.4375 5.4375 C17.5625 6 17.5625 6 19.5625 7.3125 C20.5625 9 20.5625 9 20.3046875 10.92578125 C18.08731372 17.12275745 9.89577196 20.99206555 4.41015625 23.859375 C0.03806233 25.61061152 -3.8275576 25.97888069 -8.4375 25 C-11.25 23.3125 -11.25 23.3125 -13.4375 21 C-16.64589787 17.63118224 -18.95634905 15.40836173 -23.4375 14 C-23.875 11.9375 -23.875 11.9375 -23.4375 9 C-17.98788903 1.58788031 -9.28536231 -3.80937941 0 0 Z " fill="#565659" transform="translate(183.4375,110)"/>
<path d="M0 0 C0.8559375 -0.01224609 1.711875 -0.02449219 2.59375 -0.03710938 C11.28442316 -0.0568609 18.39279516 1.31494883 26.0625 5.5625 C27.14144531 6.14773437 28.22039062 6.73296875 29.33203125 7.3359375 C32.08849936 9.08502168 34.17883622 10.67000795 36.25 13.1875 C36.25 14.1775 36.25 15.1675 36.25 16.1875 C31.92035953 15.70642884 27.74735507 15.09405674 23.5 14.125 C13.08953686 12.05232861 3.28578761 13.53612238 -7.07885742 15.10668945 C-20.93351416 17.16614852 -20.93351416 17.16614852 -25.75 16.1875 C-27.5234375 14.81640625 -27.5234375 14.81640625 -28.75 13.1875 C-28.75 9.78053359 -28.06280388 8.50978279 -25.6875 6.0625 C-17.59447671 0.89674045 -9.40787477 0.00695849 0 0 Z " fill="#080606" transform="translate(306.75,202.8125)"/>
<path d="M0 0 C0.98935547 -0.00322266 1.97871094 -0.00644531 2.99804688 -0.00976562 C11.04615426 0.04897968 17.72419185 1.13047625 24.9375 4.9375 C25.7934375 5.38351563 26.649375 5.82953125 27.53125 6.2890625 C28.1603125 6.62679687 28.789375 6.96453125 29.4375 7.3125 C29.625 10.6875 29.625 10.6875 29.4375 14.3125 C25.1028596 17.20226027 21.53903729 16.76494997 16.4375 16.3125 C14.13991708 15.8404313 11.84847133 15.33792478 9.5625 14.8125 C-1.97819372 12.35204753 -15.51470294 11.21999235 -26.6875 15.65625 C-28.5625 16.3125 -28.5625 16.3125 -32.5625 16.3125 C-32.08623004 12.0260704 -29.68882867 10.09145881 -26.5625 7.3125 C-18.33968972 0.95851024 -10.14148682 -0.16581895 0 0 Z " fill="#060505" transform="translate(197.5625,202.6875)"/>
<path d="M0 0 C1.98616318 3.5987819 3.17416332 7.40109607 4.375 11.3125 C4.59269043 12.01600586 4.81038086 12.71951172 5.03466797 13.44433594 C7.52080637 21.56923236 9.78997596 29.76328487 11.703125 38.04296875 C15.95432754 56.3577425 23.4744894 73.83140911 36 88 C36.69867188 88.81855469 37.39734375 89.63710938 38.1171875 90.48046875 C43.65459517 96.83567862 49.67659548 102.44485958 56 108 C54.265625 108.6875 54.265625 108.6875 52 109 C49.921875 107.8125 49.921875 107.8125 47.75 106 C46.96367187 105.34902344 46.17734375 104.69804687 45.3671875 104.02734375 C44.19542969 103.02380859 44.19542969 103.02380859 43 102 C42.30132812 101.42378906 41.60265625 100.84757812 40.8828125 100.25390625 C15.26643262 78.67434888 3.18104259 48.81440158 0.26953125 16.06640625 C-0.12847282 10.71040863 -0.18941905 5.36687307 0 0 Z " fill="#F3EBD8" transform="translate(146,260)"/>
<path d="M0 0 C6.86830919 1.92513192 11.40283603 5.60686064 16 11 C17.506204 14.28962347 18.27909276 17.4724539 19 21 C19.33 21.33 19.66 21.66 20 22 C20.84519248 26.87946176 21.03014614 31.22600808 18.49609375 35.58984375 C13.48174964 41.48734044 8.31645133 44.56118289 1 47 C-17.44520206 48.28858697 -17.44520206 48.28858697 -24.23828125 43.55078125 C-29.45472119 38.95892614 -32.82136039 35.07183766 -34 28 C-34.13920462 24.32599245 -34.11959363 20.67418205 -34 17 C-33.34 16.67 -32.68 16.34 -32 16 C-31.90203125 16.7734375 -31.8040625 17.546875 -31.703125 18.34375 C-30.30343561 28.0933106 -28.40354363 34.60676744 -20.5859375 40.87109375 C-16.17000205 44.01445667 -11.22625596 43.51251958 -6 43 C-0.63278532 41.28601721 2.32351267 37.85732886 5 33 C8.19367704 26.44032522 8.09307292 17.74728751 6.46484375 10.67578125 C4.88706948 6.83911705 2.38766547 3.37566497 0 0 Z " fill="#F8F5E9" transform="translate(315,239)"/>
<path d="M0 0 C-2.69659383 9.56065086 -7.98691908 17.06432615 -15 24 C-15.99 24.495 -15.99 24.495 -17 25 C-17.66 25.99 -18.32 26.98 -19 28 C-19 27.34 -19 26.68 -19 26 C-20.06476563 26.65226562 -21.12953125 27.30453125 -22.2265625 27.9765625 C-35.32533697 35.90596666 -47.78910891 42.11953225 -63 45 C-62.5125048 41.36144885 -61.73145807 38.25273914 -60 35 C-56.61796056 32.56730497 -52.92013097 31.34645817 -49 30 C-32.34328172 23.659994 -18.16963338 14.07970451 -4.8125 2.375 C-2 0 -2 0 0 0 Z " fill="#BD7C57" transform="translate(216,166)"/>
<path d="M0 0 C-0.41551071 2.22516919 -0.8544896 4.4432587 -1.3125 6.66015625 C-1.6837317 8.46358297 -2.05040712 10.26810288 -2.390625 12.07763672 C-2.82009565 14.34876103 -3.28309881 16.61130256 -3.75 18.875 C-3.88245117 19.61226318 -4.01490234 20.34952637 -4.15136719 21.10913086 C-5.05198709 25.30354241 -5.50257852 26.62504015 -9.078125 29.3203125 C-10.04234375 29.87460938 -11.0065625 30.42890625 -12 31 C-12.495 32.485 -12.495 32.485 -13 34 C-15.31 34 -17.62 34 -20 34 C-21.47365075 29.18896371 -22.46868179 24.56822854 -23.125 19.5625 C-23.37636719 17.70818359 -23.37636719 17.70818359 -23.6328125 15.81640625 C-24.01634326 11.83013442 -24.06202782 8.0007945 -24 4 C-20.75128084 3.32698711 -17.50083621 2.6627049 -14.25 2 C-12.86941406 1.71382812 -12.86941406 1.71382812 -11.4609375 1.421875 C-10.57148438 1.24140625 -9.68203125 1.0609375 -8.765625 0.875 C-7.94868164 0.70742187 -7.13173828 0.53984375 -6.29003906 0.3671875 C-4 0 -4 0 0 0 Z " fill="#15181D" transform="translate(147,204)"/>
<path d="M0 0 C1.051875 -0.00257813 2.10375 -0.00515625 3.1875 -0.0078125 C6 0.125 6 0.125 9 1.125 C9 7.065 9 13.005 9 19.125 C6.36 18.135 3.72 17.145 1 16.125 C-2.68211535 15.75054759 -5.14872889 15.8209746 -8.625 17.0625 C-12.94325255 20.81256142 -15.66126831 24.53367428 -16.21484375 30.40283203 C-16.42960344 35.98551013 -16.25537772 41.54641557 -16 47.125 C-22.46588297 39.77740571 -21.6580838 29.40736378 -21.18652344 20.22167969 C-20.56983405 13.28957433 -18.00608013 8.71103205 -12.9375 4.0625 C-8.67226135 0.58317864 -5.45829437 -0.01337817 0 0 Z " fill="#F3EADE" transform="translate(129,245.875)"/>
<path d="M0 0 C0.14695313 1.485 0.14695313 1.485 0.296875 3 C1.43471235 13.46042089 2.88036871 20.91612572 11.21875 27.87109375 C15.18944441 30.38760841 19.40715377 30.37646281 24 30 C29.58319304 28.26468324 33.99409879 26.20252132 37 21 C39.71018554 14.81930538 40.59451816 8.6974414 41 2 C43.61576463 4.61576463 43.32801545 5.85399883 43.375 9.5 C43.23386868 16.42373667 42.01577436 22.55544255 37.3515625 27.8828125 C30.35464706 34.20753519 23.3149925 34.5272971 14.24609375 34.30859375 C6.90058983 33.91840939 1.43939806 31.64566464 -3.9375 26.625 C-8.51554003 21.52869129 -10.64588536 17.0060153 -10.42578125 10.11328125 C-9.73029159 6.66135552 -7.68158552 5.12032343 -5 3 C-4.443125 2.401875 -3.88625 1.80375 -3.3125 1.1875 C-2 0 -2 0 0 0 Z " fill="#F7F3E4" transform="translate(182,252)"/>
<path d="M0 0 C2.625 0.375 2.625 0.375 5 1 C5.495 3.475 5.495 3.475 6 6 C-5.76071656 17.49342754 -21.7369966 20.23402484 -37.625 20.3125 C-39.08462158 20.32083862 -39.08462158 20.32083862 -40.57373047 20.3293457 C-47.6145831 20.2569446 -47.6145831 20.2569446 -51 18 C-51 16.68 -51 15.36 -51 14 C-50.38181396 13.96036133 -49.76362793 13.92072266 -49.12670898 13.87988281 C-22.58796769 12.60370979 -22.58796769 12.60370979 0 0 Z " fill="#0B0908" transform="translate(287,319)"/>
<path d="M0 0 C4.95 1.98 4.95 1.98 10 4 C10.82657982 9.37276885 9.01099649 12.33771711 5.96875 16.53515625 C-1.32527865 25.66716434 -1.32527865 25.66716434 -6 29 C-9.9375 28.75 -9.9375 28.75 -11.83984375 27.9296875 C-14.52540931 26.77387447 -17.11975819 26.35320107 -20 25.875 C-20.94875 25.70742188 -21.8975 25.53984375 -22.875 25.3671875 C-23.57625 25.24601562 -24.2775 25.12484375 -25 25 C-22.02186864 22.5022124 -18.9813185 20.3583146 -15.6875 18.3125 C-8.78622867 13.76157817 -3.15511944 7.69060364 0 0 Z " fill="#1F2224" transform="translate(313,404)"/>
<path d="M0 0 C7.07307605 2.17633109 11.91805591 5.74907465 15.8046875 12.078125 C20.28359009 21.13277131 23.44509299 31.07301144 25.25 41 C22.68738128 38.70190966 20.82826618 36.04399232 18.88916016 33.21484375 C11.18226778 21.99832368 3.8904594 14.57936341 -8.75 9 C-10.08730137 8.34132917 -11.42239123 7.67799498 -12.75 7 C-11.8425 6.401875 -10.935 5.80375 -10 5.1875 C-6.86062568 3.18727249 -6.86062568 3.18727249 -4.75 1.1875 C-2.75 0 -2.75 0 0 0 Z " fill="#3F3E41" transform="translate(337.75,137)"/>
<path d="M0 0 C3.17520995 1.54840485 4.69035577 2.99638309 6.2109375 6.17578125 C5.80228041 9.58125699 5.40335131 10.30239126 3.0859375 12.67578125 C-0.98213484 15.77993283 -4.62020253 16.0598454 -9.6328125 15.75 C-13.22424368 15.11263181 -14.93210806 14.20232202 -17.1640625 11.30078125 C-18.3515625 7.86328125 -18.3515625 7.86328125 -18.1640625 4.30078125 C-13.39914129 -1.7519565 -7.17659854 -2.31879267 0 0 Z " fill="#A66440" transform="translate(261.1640625,293.69921875)"/>
<path d="M0 0 C0 1.32 0 2.64 0 4 C-1.11117187 4.38671875 -2.22234375 4.7734375 -3.3671875 5.171875 C-17.44736731 10.09193333 -31.72751222 15.13492012 -45 22 C-46.98 20.68 -48.96 19.36 -51 18 C-44.87077149 12.67023608 -36.58849682 10.42563653 -28.9921875 8.02734375 C-25.90003544 7.01153211 -25.90003544 7.01153211 -22.61328125 5.515625 C-18.88389532 3.95129879 -15.22088449 2.84393413 -11.3125 1.8125 C-10.66216797 1.63525391 -10.01183594 1.45800781 -9.34179688 1.27539062 C-6.0696748 0.41149703 -3.416908 0 0 0 Z " fill="#7C7C7F" transform="translate(177,411)"/>
<path d="M0 0 C5.2087154 3.26773183 12.22732214 8.92643621 14.296875 14.90625 C14.35875 15.45152344 14.420625 15.99679688 14.484375 16.55859375 C13.70126953 16.26855469 13.70126953 16.26855469 12.90234375 15.97265625 C2.27461824 12.21293549 -8.30287002 11.18061519 -19.515625 10.55859375 C-8.4472631 -3.50998346 -8.4472631 -3.50998346 0 0 Z " fill="#101114" transform="translate(278.515625,131.44140625)"/>
<path d="M0 0 C0.33 0 0.66 0 1 0 C1.33 6.27 1.66 12.54 2 19 C4.64 17.35 7.28 15.7 10 14 C13.06433955 12.97698203 15.78138317 12.67991656 19 13 C22.5625 14.8125 22.5625 14.8125 25 17 C25 17.66 25 18.32 25 19 C23.9275 19.04125 22.855 19.0825 21.75 19.125 C14.18534696 20.04356501 6.89449479 24.31247319 1 29 C-0.09857724 22.8323971 -0.11539104 16.81584877 -0.0625 10.5625 C-0.05798828 9.54478516 -0.05347656 8.52707031 -0.04882812 7.47851562 C-0.03712437 4.98561491 -0.02072848 2.49283926 0 0 Z " fill="#79321A" transform="translate(369,248)"/>
<path d="M0 0 C1.95107981 0.97899927 3.86215171 2.03685217 5.765625 3.10546875 C5.765625 6.40546875 5.765625 9.70546875 5.765625 13.10546875 C4.98058594 12.68394531 4.19554687 12.26242187 3.38671875 11.828125 C-2.27349231 8.8764812 -6.88308003 6.6700283 -13.234375 6.10546875 C-13.564375 5.44546875 -13.894375 4.78546875 -14.234375 4.10546875 C-13.484375 2.04296875 -13.484375 2.04296875 -12.234375 0.10546875 C-7.98040114 -1.31252254 -4.25187791 -1.70223783 0 0 Z " fill="#762F17" transform="translate(132.234375,261.89453125)"/>
<path d="M0 0 C3.4375 0.9375 3.4375 0.9375 5.4375 2.0625 C7.10169313 5.18286212 6.26829102 7.61433593 5.4375 10.9375 C4.3125 12.9375 4.3125 12.9375 2.4375 13.9375 C-0.99359583 13.81496086 -3.54470554 13.56130951 -6.5 11.75 C-8.12284621 8.98161529 -8.01172076 7.08204533 -7.5625 3.9375 C-5.26874134 0.3592365 -4.28872478 -0.07524079 0 0 Z " fill="#EDEDED" transform="translate(296.5625,241.0625)"/>
<path d="M0 0 C2.375 1.125 2.375 1.125 4 3 C4.62060815 6.64607289 4.47464453 8.30628876 2.375 11.375 C-0.67785921 13.46379841 -2.36968224 13.54068562 -6 13 C-7.875 11.9375 -7.875 11.9375 -9 10 C-9.63316583 4.09045226 -9.63316583 4.09045226 -7.875 1.0625 C-5.09808875 -0.51108304 -3.13770673 -0.38420899 0 0 Z " fill="#F4F5F5" transform="translate(197,241)"/>
<path d="M0 0 C0.33 0 0.66 0 1 0 C1.09796875 0.7734375 1.1959375 1.546875 1.296875 2.34375 C2.61731655 11.5413084 4.44053724 18.81752224 11.91796875 24.8125 C15.67538903 26.95556898 19.74950414 27.50396628 24 28 C24 28.33 24 28.66 24 29 C27.3 29.33 30.6 29.66 34 30 C34 30.33 34 30.66 34 31 C13.7943726 31.9808557 13.7943726 31.9808557 7 26 C1.68531969 21.12531501 -0.77186205 16.50110007 -1.14453125 9.1484375 C-1.18337263 6.41541643 -1.20279878 3.72599289 -1 1 C-0.67 0.67 -0.34 0.34 0 0 Z " fill="#F2E8D3" transform="translate(282,255)"/>
<path d="M0 0 C-0.268125 0.66 -0.53625 1.32 -0.8125 2 C-1.47545491 3.67483346 -2.11480359 5.36139356 -2.66015625 7.078125 C-2.89605469 7.79484375 -3.13195312 8.5115625 -3.375 9.25 C-3.58898437 9.93578125 -3.80296875 10.6215625 -4.0234375 11.328125 C-5 13 -5 13 -6.96875 13.68359375 C-7.6390625 13.78800781 -8.309375 13.89242187 -9 14 C-11.42051607 14.92549144 -12.68788237 15.55646442 -14.1875 17.6875 C-15.26385267 20.7509653 -15.62879105 23.78285575 -16 27 C-16.66 26.67 -17.32 26.34 -18 26 C-16.44568619 13.36097452 -16.44568619 13.36097452 -12 8 C-11.360625 7.113125 -10.72125 6.22625 -10.0625 5.3125 C-7.05562336 1.94115346 -4.58645436 0 0 0 Z " fill="#B3B0A9" transform="translate(188,240)"/>
<path d="M0 0 C2.61576463 2.61576463 2.32801545 3.85399883 2.375 7.5 C2.23386868 14.42373667 1.01577436 20.55544255 -3.6484375 25.8828125 C-6.74453802 28.68147105 -9.89026513 31.00033476 -14 32 C-16.3125 31.625 -16.3125 31.625 -18 31 C-17 28 -17 28 -15.07421875 27.0078125 C-14.28660156 26.71648437 -13.49898437 26.42515625 -12.6875 26.125 C-7.78820914 24.05192447 -5.31949913 22.00917449 -3.13671875 17.03125 C-1.0600646 11.44101513 -0.3589309 5.92854839 0 0 Z " fill="#F0E9D6" transform="translate(223,254)"/>
<path d="M0 0 C4.71474937 1.28897388 7.64769516 3.02512058 11.25 6.3125 C12.10078125 7.07175781 12.9515625 7.83101562 13.828125 8.61328125 C16.04518694 11.04965687 17.09079656 12.85436511 18 16 C17.625 18.3125 17.625 18.3125 17 20 C16.67 19.01 16.34 18.02 16 17 C14.11683841 15.89163577 14.11683841 15.89163577 12 15 C11.01 14.34 10.02 13.68 9 13 C9 16.3 9 19.6 9 23 C8.67 23 8.34 23 8 23 C7.92523438 22.09378906 7.85046875 21.18757813 7.7734375 20.25390625 C6.88465092 12.01956 5.36662927 6.37920083 0 0 Z " fill="#B0B0AF" transform="translate(315,239)"/>
<path d="M0 0 C1.66870487 0.32297514 3.33465333 0.66013333 5 1 C6.12148438 1.21849609 6.12148438 1.21849609 7.265625 1.44140625 C8.46445312 1.68697266 8.46445312 1.68697266 9.6875 1.9375 C10.45449219 2.09089844 11.22148437 2.24429688 12.01171875 2.40234375 C14 3 14 3 16 5 C17.98356483 5.71408334 19.98315437 6.38617742 22 7 C22 7.33 22 7.66 22 8 C16.00082134 7.59436159 10.69196378 7.02380935 5 5 C-0.45019668 4.17193345 -5.7134391 3.86189138 -11.21875 3.90234375 C-12.33376892 3.90446617 -12.33376892 3.90446617 -13.47131348 3.90663147 C-15.81425229 3.91216891 -18.15709073 3.92470909 -20.5 3.9375 C-22.10156111 3.94252311 -23.70312373 3.94708458 -25.3046875 3.95117188 C-29.20316288 3.96211773 -33.1015645 3.97933804 -37 4 C-37 3.67 -37 3.34 -37 3 C-29.15408615 1.9840438 -21.34123065 1.68411257 -13.4375 1.4375 C-12.14263672 1.39431641 -10.84777344 1.35113281 -9.51367188 1.30664062 C-6.34253616 1.20132615 -3.17133207 1.09919383 0 1 C0 0.67 0 0.34 0 0 Z " fill="#8A8A85" transform="translate(274,63)"/>
<path d="M0 0 C0.66 0 1.32 0 2 0 C1.73768815 6.40040911 1.2250387 12.86288945 -3 18 C-5.13671875 18.71484375 -5.13671875 18.71484375 -7 19 C-7.99 17.35 -8.98 15.7 -10 14 C-9.52949219 13.49210937 -9.05898437 12.98421875 -8.57421875 12.4609375 C-4.98265595 8.49014136 -2.0977575 4.93590001 0 0 Z " fill="#EEE5D2" transform="translate(211,396)"/>
<path d="M0 0 C6.98926387 0.52419479 12.46985825 3.95152879 17 9.1875 C19 12 19 12 19 14 C19.66 14.33 20.32 14.66 21 15 C19.02 15.99 19.02 15.99 17 17 C16.41605469 15.89591797 16.41605469 15.89591797 15.8203125 14.76953125 C11.64252983 7.48247715 7.91230514 3.88154372 0 1 C0 0.67 0 0.34 0 0 Z " fill="#0D0C0E" transform="translate(294,97)"/>
<path d="M0 0 C7.65606218 -0.19355213 14.66258031 -0.3479743 22 2 C22 2.33 22 2.66 22 3 C15.07 3 8.14 3 1 3 C0.67 2.01 0.34 1.02 0 0 Z " fill="#F0EDE3" transform="translate(255,62)"/>
<path d="M0 0 C0.33 0 0.66 0 1 0 C1 10.23 1 20.46 1 31 C0.67 31 0.34 31 0 31 C-0.33 24.73 -0.66 18.46 -1 12 C-1.33 12 -1.66 12 -2 12 C-1.85904936 10.3745692 -1.71207913 8.74965949 -1.5625 7.125 C-1.48128906 6.22007812 -1.40007812 5.31515625 -1.31640625 4.3828125 C-1 2 -1 2 0 0 Z " fill="#9B634B" transform="translate(360,250)"/>
<path d="M0 0 C-1.32 0.33 -2.64 0.66 -4 1 C-3.67 1.99 -3.34 2.98 -3 4 C-7.62 4.33 -12.24 4.66 -17 5 C-16.34 4.67 -15.68 4.34 -15 4 C-14.67 3.01 -14.34 2.02 -14 1 C-9.32798795 -0.20568053 -4.78503708 -0.09382426 0 0 Z " fill="#DBD6C2" transform="translate(259,61)"/>
<path d="M0 0 C4.50802601 1.25805377 7.4912812 2.90407165 11 6 C10.34 7.32 9.68 8.64 9 10 C5.33838422 8.77946141 4.83729526 7.63217696 2.8125 4.4375 C2.28269531 3.61121094 1.75289063 2.78492188 1.20703125 1.93359375 C0.80871094 1.29550781 0.41039062 0.65742188 0 0 Z " fill="#BEBFC0" transform="translate(315,239)"/>
<path d="M0 0 C6.30463754 4.30560612 9.62420948 10.23843142 13 17 C13 17.66 13 18.32 13 19 C12.34 19 11.68 19 11 19 C10.45730469 18.02417969 9.91460937 17.04835937 9.35546875 16.04296875 C8.6330725 14.75766633 7.91040182 13.47251813 7.1875 12.1875 C6.83107422 11.54490234 6.47464844 10.90230469 6.10742188 10.24023438 C4.3318316 7.09629931 2.61444936 4.48248977 0 2 C0 1.34 0 0.68 0 0 Z " fill="#AF7552" transform="translate(335,170)"/>
<path d="M0 0 C2.4375 1 2.4375 1 4 2 C4 2.66 4 3.32 4 4 C4.99 4.33 5.98 4.66 7 5 C2.64870069 5.26371511 -0.85187793 4.25925134 -5 3 C-6.66246041 2.64628502 -8.32774271 2.30404678 -10 2 C-6.29873141 -0.46751239 -4.37776468 -0.30721156 0 0 Z " fill="#454647" transform="translate(181,109)"/>
<path d="M0 0 C1.89492188 0.15275391 1.89492188 0.15275391 3.828125 0.30859375 C4.79234375 0.39238281 5.7565625 0.47617188 6.75 0.5625 C6.75 0.8925 6.75 1.2225 6.75 1.5625 C1.47 2.2225 -3.81 2.8825 -9.25 3.5625 C-9.25 2.9025 -9.25 2.2425 -9.25 1.5625 C-9.91 1.2325 -10.57 0.9025 -11.25 0.5625 C-7.43483536 -0.73812431 -3.97438237 -0.33119853 0 0 Z " fill="#444548" transform="translate(284.25,96.4375)"/>
<path d="M0 0 C4.8991349 1.29977048 9.37559575 2.92373687 14 5 C14 5.33 14 5.66 14 6 C12.22844346 5.88570603 10.45773771 5.75816963 8.6875 5.625 C7.70136719 5.55539063 6.71523438 5.48578125 5.69921875 5.4140625 C3 5 3 5 0 3 C0 2.01 0 1.02 0 0 Z " fill="#75777B" transform="translate(282,65)"/>
<path d="M0 0 C-0.66 1.65 -1.32 3.3 -2 5 C-2.66 4.34 -3.32 3.68 -4 3 C-6.97 5.97 -9.94 8.94 -13 12 C-13 8.36455426 -11.77445022 7.09547872 -9.43359375 4.4296875 C-6.50630054 1.51037056 -4.14445097 0 0 0 Z " fill="#989794" transform="translate(188,240)"/>
<path d="M0 0 C4.26157761 8.34334182 4.26157761 8.34334182 3.625 12.375 C3.41875 12.91125 3.2125 13.4475 3 14 C2.01 13.34 1.02 12.68 0 12 C-0.29296875 9.1796875 -0.29296875 9.1796875 -0.1875 5.875 C-0.16042969 4.77929688 -0.13335937 3.68359375 -0.10546875 2.5546875 C-0.07066406 1.71164062 -0.03585938 0.86859375 0 0 Z " fill="#A2A3A5" transform="translate(146,260)"/>
<path d="M0 0 C0 0.33 0 0.66 0 1 C-1.670625 1.433125 -1.670625 1.433125 -3.375 1.875 C-7.00291092 2.69241329 -7.00291092 2.69241329 -9 5 C-8.01 5.66 -7.02 6.32 -6 7 C-7.65 7 -9.3 7 -11 7 C-11.33 6.34 -11.66 5.68 -12 5 C-11.25 2.9375 -11.25 2.9375 -10 1 C-6.52674819 -0.1577506 -3.63932552 -0.06866652 0 0 Z " fill="#9D5F42" transform="translate(130,261)"/>
<path d="M0 0 C1.65 0.33 3.3 0.66 5 1 C4.67 2.32 4.34 3.64 4 5 C2.35 4.67 0.7 4.34 -1 4 C-0.67 2.68 -0.34 1.36 0 0 Z " fill="#DBDBDB" transform="translate(360,236)"/>
<path d="M0 0 C1.65 0.33 3.3 0.66 5 1 C4.67 2.32 4.34 3.64 4 5 C2.35 4.67 0.7 4.34 -1 4 C-0.67 2.68 -0.34 1.36 0 0 Z " fill="#DCDBDB" transform="translate(140,236)"/>
<path d="M0 0 C0.33 0 0.66 0 1 0 C1 5.94 1 11.88 1 18 C-1.475 17.01 -1.475 17.01 -4 16 C-3.01 15.34 -2.02 14.68 -1 14 C-0.41312216 10.65386488 -0.41312216 10.65386488 -0.3125 6.875 C-0.24675781 5.59367188 -0.18101562 4.31234375 -0.11328125 2.9921875 C-0.05720703 1.51105469 -0.05720703 1.51105469 0 0 Z " fill="#D9C7B6" transform="translate(137,247)"/>
<path d="M0 0 C0.99 0 1.98 0 3 0 C3.33 2.31 3.66 4.62 4 7 C3.67 7 3.34 7 3 7 C2.67 9.64 2.34 12.28 2 15 C1.67 15 1.34 15 1 15 C0.67 10.05 0.34 5.1 0 0 Z " fill="#9F9183" transform="translate(221,249)"/>
<path d="M0 0 C3.0831351 1.19899698 6.06279492 2.47700477 9 4 C9 5.32 9 6.64 9 8 C4.7257442 6.4169423 2.73468206 3.49431596 0 0 Z " fill="#C78C62" transform="translate(203,368)"/>
<path d="M0 0 C0.66 0 1.32 0 2 0 C2 0.66 2 1.32 2 2 C2.66 2.33 3.32 2.66 4 3 C3.34 3.66 2.68 4.32 2 5 C1.60235737 6.98821313 1.26224651 8.98944339 1 11 C0.34 10.01 -0.32 9.02 -1 8 C-1.99 8.495 -1.99 8.495 -3 9 C-2.5359375 7.88625 -2.5359375 7.88625 -2.0625 6.75 C-1.1905075 4.49307824 -0.52332993 2.3549847 0 0 Z " fill="#2D2D2E" transform="translate(187,239)"/>
<path d="M0 0 C1.4391134 0.28359887 2.87625518 0.57721399 4.3125 0.875 C5.11300781 1.03742188 5.91351563 1.19984375 6.73828125 1.3671875 C9 2 9 2 12 4 C11 5 11 5 7.9375 5.0625 C6.968125 5.041875 5.99875 5.02125 5 5 C5 4.34 5 3.68 5 3 C2.525 2.01 2.525 2.01 0 1 C0 0.67 0 0.34 0 0 Z " fill="#4D4E52" transform="translate(289,67)"/>
<path d="M0 0 C0.66 0.33 1.32 0.66 2 1 C-0.97 3.97 -3.94 6.94 -7 10 C-7.33 9.34 -7.66 8.68 -8 8 C-5.33333333 5.33333333 -2.66666667 2.66666667 0 0 Z " fill="#1D1C1E" transform="translate(114,242)"/>
<path d="M0 0 C1.36125 0.12375 1.36125 0.12375 2.75 0.25 C2.42 0.91 2.09 1.57 1.75 2.25 C-0.31640625 2.8828125 -0.31640625 2.8828125 -2.8125 3.375 C-4.05193359 3.62636719 -4.05193359 3.62636719 -5.31640625 3.8828125 C-5.95449219 4.00398438 -6.59257812 4.12515625 -7.25 4.25 C-4.83923194 1.28290085 -3.90322061 0.30024774 0 0 Z " fill="#24272A" transform="translate(175.25,106.75)"/>
<path d="M0 0 C2.9375 0.8125 2.9375 0.8125 6 2 C6.33 2.99 6.66 3.98 7 5 C6.34 5.66 5.68 6.32 5 7 C3.35 4.69 1.7 2.38 0 0 Z " fill="#ADADAF" transform="translate(315,239)"/>
<path d="M0 0 C3.3 0.33 6.6 0.66 10 1 C10 1.33 10 1.66 10 2 C7.69 2.66 5.38 3.32 3 4 C2.01 2.68 1.02 1.36 0 0 Z " fill="#CA996F" transform="translate(328,236)"/>
<path d="M0 0 C0.33 0 0.66 0 1 0 C1 2.97 1 5.94 1 9 C0.01 9.495 0.01 9.495 -1 10 C-1.33 8.02 -1.66 6.04 -2 4 C-1.34 4 -0.68 4 0 4 C0 2.68 0 1.36 0 0 Z " fill="#FAE9DA" transform="translate(152,218)"/>
<path d="M0 0 C0.33 1.32 0.66 2.64 1 4 C-0.65 4.33 -2.3 4.66 -4 5 C-2.25 1.125 -2.25 1.125 0 0 Z " fill="#1C1C1F" transform="translate(154,160)"/>
<path d="M0 0 C0.66 0.33 1.32 0.66 2 1 C-0.31 3.31 -2.62 5.62 -5 8 C-5.66 7.67 -6.32 7.34 -7 7 C-4.66666667 4.66666667 -2.33333333 2.33333333 0 0 Z " fill="#201611" transform="translate(172,209)"/>
<path d="M0 0 C0 0.99 0 1.98 0 3 C-3.22791555 5.1519437 -4.28400809 5.20086443 -8 5 C-5.44008376 2.98863724 -2.95409701 1.37154504 0 0 Z " fill="#966040" transform="translate(216,188)"/>
<path d="M0 0 C4.875 1.75 4.875 1.75 6 4 C3.03 3.67 0.06 3.34 -3 3 C-2.01 2.67 -1.02 2.34 0 2 C0 1.34 0 0.68 0 0 Z " fill="#939496" transform="translate(278,64)"/>
<path d="M0 0 C0.99 0 1.98 0 3 0 C3 0.99 3 1.98 3 3 C2.34 3 1.68 3 1 3 C1 4.32 1 5.64 1 7 C0.34 7 -0.32 7 -1 7 C-0.67 4.69 -0.34 2.38 0 0 Z " fill="#CDBEAE" transform="translate(151,215)"/>
<path d="M0 0 C0 3 0 3 -1.3125 4.38671875 C-2.875 5.59114583 -4.4375 6.79557292 -6 8 C-5.67 6.68 -5.34 5.36 -5 4 C-4.34 4 -3.68 4 -3 4 C-2.67 3.01 -2.34 2.02 -2 1 C-1.34 0.67 -0.68 0.34 0 0 Z " fill="#3E3E40" transform="translate(166,111)"/>
</svg>
